<?xml version="1.0" encoding="utf-8"?>
<!-- Generator: Adobe Illustrator 27.0.0, SVG Export Plug-In . SVG Version: 6.00 Build 0)  -->
<svg version="1.1" id="Layer_1" xmlns="http://www.w3.org/2000/svg" xmlns:xlink="http://www.w3.org/1999/xlink" x="0px" y="0px"
	 viewBox="0 0 165 45" style="enable-background:new 0 0 165 45;" xml:space="preserve">
<style type="text/css">
	.st0{clip-path:url(#SVGID_00000053522099304324790380000000830981124690924202_);}
	.st1{fill:#6119BF;}
</style>
<g>
	<defs>
		<rect id="SVGID_1_" width="165" height="45"/>
	</defs>
	<clipPath id="SVGID_00000002379632278514028870000012942595509275063697_">
		<use xlink:href="#SVGID_1_"  style="overflow:visible;"/>
	</clipPath>
	<g style="clip-path:url(#SVGID_00000002379632278514028870000012942595509275063697_);">
		<path class="st1" d="M70.7,8.7v7.4c-0.4-0.7-1-1.3-1.7-1.7c-1-0.6-2.2-0.9-3.4-0.9c-1.1,0-2.1,0.2-3.1,0.6c-0.9,0.4-1.7,1-2.4,1.8
			c-0.7,0.8-1.2,1.7-1.5,2.7c-0.4,1.1-0.5,2.2-0.5,3.3v0.7c0,1.1,0.2,2.2,0.5,3.3c0.3,1,0.9,1.9,1.6,2.6c0.7,0.7,1.5,1.3,2.4,1.7
			c1,0.4,2,0.6,3.1,0.6c1.2,0,2.4-0.3,3.4-0.9c1-0.6,1.8-1.5,2.3-2.5c0.1-0.2,0.2-0.4,0.3-0.7v3.5H76V8.7L70.7,8.7L70.7,8.7z
			 M70.8,22.7c0,0.7-0.2,1.4-0.5,2.1c-0.3,0.5-0.8,1-1.3,1.3c-0.5,0.3-1.2,0.5-1.8,0.4c-0.7,0-1.3-0.2-1.9-0.5
			c-0.6-0.4-1-0.9-1.3-1.5c-0.3-0.7-0.5-1.5-0.5-2.2c0-0.8,0.1-1.5,0.5-2.2c0.3-0.6,0.8-1.1,1.3-1.5c0.6-0.4,1.2-0.6,1.9-0.5
			c0.6,0,1.2,0.1,1.7,0.4c0.5,0.3,1,0.7,1.3,1.2c0.4,0.6,0.5,1.3,0.5,2L70.8,22.7L70.8,22.7z M92,16.7c-0.6-1-1.6-1.8-2.7-2.2
			c-1.4-0.5-2.8-0.8-4.2-0.7c-0.6,0-1.2,0-1.9,0c-0.7,0-1.4,0-2,0.1c-0.6,0-1.2,0.1-1.7,0.1v4.5l2.2-0.1l2.3-0.1h1.6
			c0.6-0.1,1.2,0.1,1.7,0.6c0.4,0.5,0.5,1,0.5,1.6h-2.6c-1.3,0-2.6,0.2-3.9,0.5c-1,0.3-2,0.9-2.7,1.7c-0.7,0.9-1,1.9-1,3
			c0,1,0.2,2,0.7,2.8c0.5,0.8,1.2,1.4,2.1,1.8c0.9,0.4,2,0.6,3,0.6c1,0,2-0.2,2.9-0.6c0.8-0.4,1.4-1,1.8-1.8
			c0.2-0.3,0.3-0.7,0.4-1.1v3h4.2v-10C93,19.1,92.6,17.8,92,16.7z M87.4,26.1c-0.2,0.4-0.5,0.7-0.9,0.9c-0.4,0.2-0.8,0.3-1.2,0.3
			c-0.6,0-1.2-0.2-1.7-0.5c-0.2-0.2-0.3-0.4-0.4-0.7C83,25.8,83,25.5,83,25.2c0-0.6,0.2-1.1,0.6-1.5c0.5-0.4,1.1-0.6,1.7-0.5h2.6
			v1.2C87.8,25,87.7,25.6,87.4,26.1L87.4,26.1z M120.5,21.1v9.3h-5.3v-9.5c0-0.7-0.2-1.3-0.6-1.9c-0.2-0.3-0.5-0.5-0.8-0.6
			c-0.3-0.1-0.6-0.2-0.9-0.2c-0.3,0-0.7,0-1,0.2c-0.3,0.1-0.6,0.3-0.8,0.6c-0.4,0.6-0.7,1.2-0.6,2v9.4h-5.3v-9.5
			c0-0.7-0.2-1.3-0.6-1.9c-0.2-0.3-0.5-0.5-0.8-0.6c-0.3-0.1-0.6-0.2-0.9-0.2c-0.3,0-0.7,0-1,0.2c-0.3,0.1-0.6,0.3-0.8,0.6
			c-0.4,0.6-0.7,1.2-0.6,2v9.4h-5.3V14h4.2v4.3c0.1-0.5,0.2-1,0.4-1.4c0.3-1,1-1.9,1.9-2.5c0.9-0.6,1.9-0.9,3-0.8h0.2
			c1.1,0,2.1,0.3,3,0.9c0.9,0.6,1.5,1.5,1.8,2.5v0v0c0.3-1,1-1.9,1.9-2.5c0.9-0.6,2-0.9,3-0.9h0.2c1.1,0,2.2,0.3,3.1,0.9
			c0.9,0.6,1.5,1.5,1.9,2.5C120.3,18.2,120.6,19.6,120.5,21.1z M131.5,31c-1.3,0-2.6-0.2-3.8-0.7c-1.1-0.4-2-1-2.8-1.8
			c-0.8-0.8-1.4-1.7-1.8-2.7c-0.4-1-0.6-2.1-0.6-3.2v-0.7c0-1.1,0.2-2.3,0.6-3.3c0.4-1,1-1.9,1.8-2.7c0.8-0.8,1.8-1.4,2.8-1.8
			c2.4-0.9,5-0.9,7.5,0c1.1,0.4,2,1,2.8,1.8c0.8,0.8,1.4,1.7,1.8,2.7c0.4,1.1,0.6,2.2,0.6,3.3v0.7c0,1.1-0.2,2.2-0.6,3.2
			c-0.4,1-1,1.9-1.8,2.7c-0.8,0.8-1.8,1.4-2.8,1.8C134.1,30.8,132.8,31.1,131.5,31z M131.5,26.5c0.7,0,1.4-0.2,2-0.5
			c0.5-0.4,1-0.9,1.2-1.5c0.6-1.4,0.6-3,0-4.4c-0.3-0.6-0.7-1.2-1.2-1.5c-1.2-0.8-2.8-0.8-4,0c-0.6,0.4-1,0.9-1.2,1.5
			c-0.6,1.4-0.6,3,0,4.4c0.2,0.6,0.7,1.1,1.2,1.5C130.1,26.3,130.8,26.5,131.5,26.5C131.5,26.5,131.5,26.5,131.5,26.5z M147.7,8.7
			v21.8h-5.3V12.6h-1.8V8.7L147.7,8.7L147.7,8.7z M164.1,16.7c-0.6-1-1.6-1.8-2.7-2.2c-1.3-0.5-2.8-0.8-4.2-0.7c-0.6,0-1.2,0-1.9,0
			c-0.7,0-1.4,0-2,0.1c-0.6,0-1.2,0.1-1.7,0.1v4.5l2.2-0.1l2.3-0.1h1.6c0.6-0.1,1.2,0.1,1.7,0.6c0.4,0.5,0.5,1,0.5,1.6h-2.6
			c-1.3,0-2.6,0.2-3.9,0.5c-1,0.3-2,0.9-2.7,1.7c-0.7,0.9-1,1.9-1,3c0,1,0.2,2,0.7,2.8c0.5,0.8,1.2,1.4,2.1,1.8c0.9,0.4,2,0.6,3,0.6
			c1,0,2-0.2,2.9-0.6c0.8-0.4,1.4-1,1.8-1.8c0.2-0.3,0.3-0.7,0.4-1.1v3h4.2v-10C165,19.1,164.7,17.8,164.1,16.7z M159.5,26.1
			c-0.2,0.4-0.5,0.7-0.9,0.9c-0.4,0.2-0.8,0.3-1.2,0.3c-0.6,0-1.2-0.2-1.7-0.5c-0.4-0.4-0.6-0.9-0.6-1.5c0-0.3,0-0.5,0.1-0.8
			c0.1-0.3,0.3-0.5,0.5-0.7c0.5-0.4,1.1-0.6,1.7-0.5h2.6v1.2C159.9,25,159.8,25.6,159.5,26.1L159.5,26.1z M29.8,0H19.1v17.1h10.7
			L29.8,0L29.8,0z M48.5,0H37.8v17.1h10.7V0z M32.9,45c-8.7,0-17.1-3.5-23.2-9.8C3.5,28.9,0,20.4,0,11.6h10.7c0,6,2.3,11.7,6.5,16
			s9.8,6.6,15.7,6.6L32.9,45L32.9,45z"/>
	</g>
</g>
</svg>
