<?xml version="1.0" encoding="utf-8"?>
<!-- Generator: Adobe Illustrator 27.0.0, SVG Export Plug-In . SVG Version: 6.00 Build 0)  -->
<svg version="1.1" id="Layer_1" xmlns="http://www.w3.org/2000/svg" xmlns:xlink="http://www.w3.org/1999/xlink" x="0px" y="0px"
	 viewBox="0 0 131 36" style="enable-background:new 0 0 131 36;" xml:space="preserve">
<style type="text/css">
	.st0{fill:#1E9EF4;}
</style>
<path class="st0" d="M28.1,30v-6.3c0-1.5-1.2-2.7-2.7-2.7h-8.9c-1.5,0-2.7,1.2-2.7,2.7V30c0,1.5-1.2,2.7-2.7,2.7h0
	c-1.5,0-2.7-1.2-2.7-2.7V6.3c0-1.5,1.2-2.7,2.7-2.7h0.1c1.5,0,2.7,1.2,2.7,2.7v6.8c0,1.5,1.2,2.7,2.7,2.7h8.9c1.5,0,2.7-1.2,2.7-2.7
	V6.3c0-1.5,1.2-2.7,2.7-2.7s2.7,1.2,2.7,2.7V30c0,1.5-1.2,2.7-2.7,2.7C29.4,32.8,28.1,31.5,28.1,30z M38.5,11.6
	c-1.8,0-3.1-1.9-2.3-3.6c1.8-3.6,6.3-5.3,10.5-5.3c5.8,0,12.2,2.4,12.2,9.3c0,7.4-5.6,8.9-11.7,8.9c-2.4,0-6.3,0.6-6.3,3.8
	c0,1.4,1.1,2.5,2.5,2.5h13.1c1.4,0,2.5,1.1,2.5,2.5v0.1c0,1.4-1.1,2.5-2.5,2.5H37.8c-1.4,0-2.5-1.1-2.5-2.5v-5.1
	c0-6.7,6.1-8.7,11.9-8.7c2.2,0,6.3-0.4,6.3-3.8c0-3.2-2.9-4.7-6.6-4.7c-2.3,0-4.7,1-5.6,2.7c-0.4,0.8-1.3,1.4-2.2,1.4L38.5,11.6
	C38.5,11.6,38.5,11.6,38.5,11.6z M91.5,17c-0.3-7.3-5.3-14.5-15-14.5c-10.1,0-15,7.7-15,15.4S66.3,33,76.5,33c7.5,0,12-4.1,13.9-9.2
	C91.7,21.2,91.5,17,91.5,17z M84.3,17.8c-0.8,1-3-0.3-4.6-1.2s-2.3,0.7-3.7,1.6c-1.4,0.9-2.5,0-5-1.2c-2.5-1.2-4.1,1.1-4.1,1.1
	c-0.1-4.9,2.7-10.5,9.6-10.5c6.2,0,9.1,4.5,9.5,9C85.4,16.8,84.7,17.3,84.3,17.8z M95.7,24.9c0,2.1-3.2,2.1-3.2,0
	C92.5,22.8,95.7,22.8,95.7,24.9z M107.1,26.3c-0.7,0-1.2-0.5-1.2-1.2v-4.5c0-1.5-0.7-2.6-2.1-2.9c-1.8-0.3-3.3,1.1-3.3,2.9v4.6
	c0,0.6-0.5,1.1-1.1,1.1h0c-0.9,0-1.6-0.7-1.6-1.5v-8.4c0-0.5,0.4-0.9,0.9-0.9h0.6c0.6,0,1,0.4,1.1,1l0.1,0.4c0,0,0.1,0.1,0.1,0
	c1.1-1,2.1-1.6,3.5-1.6c2.6,0,4.6,1.9,4.6,5.3v4.7c0,0.5-0.4,1-1,1L107.1,26.3L107.1,26.3L107.1,26.3z M120,14.8l0.7,0.5
	c0.4,0.3,0.5,0.8,0.2,1.2l-0.7,0.8c0.8,0.9,1.1,2,1.1,3.2c0,1.4-0.5,3.2-2.3,4c1.8,0.9,2.2,2.2,2.2,3.6c0,3-2.3,4.8-5.4,4.8
	c-2.7,0-4.8-1.4-5.3-3.6c-0.2-0.6,0.3-1.2,1-1.2h0.8c0.4,0,0.7,0.2,0.8,0.6c0.3,1,1.4,1.7,2.8,1.7c1.5,0,2.7-0.8,2.7-2.3
	c0-1.5-1.4-2.2-2.8-2.2c-2.8,0-5.2-2-5.4-4.7c-0.4-3.8,2.2-6.2,5.4-6.2c0.9,0,1.7,0.1,2.5,0.6l0.6-0.8
	C119.1,14.6,119.6,14.6,120,14.8C120,14.8,120,14.8,120,14.8L120,14.8z M113,20.6c0,1.9,1.3,3,2.8,3c1.5,0,2.8-1.1,2.8-3
	s-1.3-3.1-2.8-3.1C114.2,17.5,113,18.7,113,20.6z"/>
</svg>
