<svg version="1.1"
    xmlns="http://www.w3.org/2000/svg" x="0px" y="0px" viewBox="0 0 512 512" style="enable-background:new 0 0 512 512;">
    <polygon fill="#2563eb" points="410.1,3 324.2,113 14,113 14,3 "/>
    <polygon fill="#2563eb" points="262.6,191.8 192.9,281 15,281 15,124 315.5,124 "/>
    <polygon points="333.2,281 216.9,281 274.4,206.8 275,206 276.4,207.8 "/>
    <polygon fill="#2563eb" points="184.3,292 83.6,421 16,421 16,292 "/>
    <polygon points="442.6,421 108.3,421 208.3,292 341.7,292 376.5,336.8 376.8,337.3 "/>
    <polygon fill="#2563eb" points="75.8,431 15,508.8 15,431"/>
    <polygon points="40.3,510 45,504 44,504 100.6,431 450.5,431 512.6,510"/>
</svg>
